Coordinates
nRows=217
nColumns=2
inDegrees=yes
endheader
time	ankle_angle_r	
3.09375	  9.384155	
3.12702	  9.433934	
3.16028	  9.421734	
3.19355	  9.418868	
3.22681	  9.414673	
3.26008	  9.390636	
3.29335	  9.443389	
3.32661	  9.378061	
3.35988	  9.353638	
3.39315	  9.404190	
3.42641	  9.353638	
3.45968	  9.373865	
3.49294	  9.373962	
3.52621	  9.358800	
3.55948	  9.343638	
3.59274	  9.358994	
3.62601	  9.348186	
3.65927	  9.334218	
3.69254	  9.372864	
3.72581	  9.363153	
3.75907	  9.328959	
3.79234	  9.368896	
3.8256	  9.344412	
3.85887	  9.323120	
3.89214	  9.399414	
3.9254	  9.323120	
3.95867	  9.338379	
3.99194	  9.386382	
4.0252	  9.353638	
4.05847	  9.345088	
4.09173	  9.362090	
4.125	  9.361994	
4.15827	  9.338379	
4.19153	  9.383089	
4.2248	  9.352764	
4.25806	  9.346348	
4.29133	  9.399900	
4.3246	  9.353345	
4.35786	  9.384254	
4.39113	  9.384062	
4.4244	  9.361411	
4.45766	  9.375805	
4.49093	  9.392121	
4.52419	  9.398547	
4.55746	  9.384155	
4.59073	  9.382901	
4.62399	  9.360543	
4.65726	  9.384155	
4.69052	  9.382321	
4.72379	  9.375512	
4.75706	  9.412452	
4.79032	  9.414673	
4.82359	  9.399414	
4.85685	  9.417474	
4.89012	  9.393282	
4.92339	  9.390191	
4.95665	  9.414673	
4.98992	  9.439348	
5.02319	  9.359384	
5.05645	  9.467786	
5.08972	  9.425777	
5.12298	  9.445190	
5.15625	  9.420032	
5.18952	  9.440455	
5.22278	  9.429932	
5.25605	  9.465518	
5.28931	  9.440218	
5.32258	  9.440315	
5.35585	  9.429932	
5.38911	  9.425250	
5.42238	  9.455864	
5.45565	  9.445190	
5.48891	  9.421148	
5.52218	  9.377487	
5.55544	  9.429932	
5.58871	  9.418775	
5.62198	  9.410667	
5.65524	  9.441282	
5.68851	  9.441367	
5.72177	  9.410957	
5.75504	  9.472090	
5.78831	  9.429932	
5.82157	  9.438340	
5.85484	  9.509554	
5.8881	  9.469245	
5.92137	  9.454179	
5.95464	  9.475708	
5.9879	  9.457508	
6.02117	  9.460449	
6.05444	  9.488218	
6.0877	  9.526788	
6.12097	  9.473153	
6.15423	  9.506226	
6.1875	  9.582520	
6.22077	  9.458184	
6.25403	  9.475708	
6.2873	  9.462521	
6.32056	  9.384155	
6.35383	  9.460449	
6.3871	  9.414673	
6.42036	  9.368896	
6.45363	  9.401002	
6.4869	  9.410199	
6.52016	  9.382761	
6.55343	  9.356234	
6.58669	  9.384155	
6.61996	  9.340588	
6.65323	  9.384155	
6.68649	  9.413762	
6.71976	  9.368082	
6.75302	  9.413238	
6.78629	  9.368276	
6.81956	  9.338379	
6.85282	  9.414673	
6.88609	  9.398421	
6.91935	  9.338379	
6.95262	  9.399001	
6.98589	  9.368855	
7.01915	  9.368896	
7.05242	  9.399567	
7.08569	  9.369145	
7.11895	  9.368205	
7.15222	  9.354523	
7.18548	  9.354716	
7.21875	  9.354274	
7.25202	  9.385620	
7.28528	  9.340037	
7.31855	  9.367970	
7.35181	  9.370941	
7.38508	  9.352518	
7.41835	  9.338379	
7.45161	  9.371522	
7.48488	  9.328757	
7.51815	  9.339885	
7.55141	  9.372102	
7.58468	  9.353638	
7.61794	  9.341971	
7.65121	  9.399414	
7.68448	  9.355627	
7.71774	  9.355723	
7.75101	  9.379789	
7.78427	  9.379597	
7.81754	  9.371273	
7.85081	  9.391574	
7.88407	  9.353638	
7.91734	  9.343711	
7.9506	  9.374422	
7.98387	  9.350779	
8.01714	  9.329033	
8.0504	  9.365844	
8.08367	  9.347339	
8.11694	  9.338379	
8.1502	  9.356980	
8.18347	  9.338379	
8.21673	  9.319584	
8.25	  9.353638	
8.28327	  9.380425	
8.31653	  9.323120	
8.3498	  9.368896	
8.38306	  9.342399	
8.41633	  9.327236	
8.4496	  9.368896	
8.48286	  9.345018	
8.51613	  9.353638	
8.5494	  9.327623	
8.58266	  9.344438	
8.61593	  9.364200	
8.64919	  9.353638	
8.68246	  9.343268	
8.71573	  9.353936	
8.74899	  9.363805	
8.78226	  9.368896	
8.81552	  9.343084	
8.84879	  9.389528	
8.88206	  9.348167	
8.91532	  9.342505	
8.94859	  9.384155	
8.98185	  9.353638	
9.01512	  9.347781	
9.04839	  9.399414	
9.08165	  9.362846	
9.11492	  9.365715	
9.14819	  9.399414	
9.18145	  9.335800	
9.21472	  9.386540	
9.24798	  9.405948	
9.28125	  9.384155	
9.31452	  9.385960	
9.34778	  9.397802	
9.38105	  9.392493	
9.41431	  9.415897	
9.44758	  9.490967	
9.48085	  9.422721	
9.51411	  9.414673	
9.54738	  9.445642	
9.58065	  9.399672	
9.61391	  9.452787	
9.64718	  9.460449	
9.68044	  9.460127	
9.71371	  9.484111	
9.74698	  9.529469	
9.78024	  9.437110	
9.81351	  9.535647	
9.84677	  9.520195	
9.88004	  9.453561	
9.91331	  9.536743	
9.94657	  9.497662	
9.97984	  9.473645	
10.0131	  9.475708	
10.0464	  9.447639	
10.0796	  9.399414	
10.1129	  9.451402	
10.1462	  9.429932	
10.1794	  9.344397	
10.2127	  9.411257	
10.246	  9.389980	
10.2792	  9.378428	
